HIERARCHY
ROOT mixamorig:Hips
{
	OFFSET 0.00 0.00 0.00
	CHANNELS 6 Xposition Yposition Zposition Zrotation Yrotation Xrotation
	JOINT mixamorig:Spine
	{
		OFFSET	0.0000	9.9235	-1.2273
		CHANNELS 3 Zrotation Yrotation Xrotation
		JOINT mixamorig:Spine1
		{
			OFFSET	-0.0001	11.6455	-1.4224
			CHANNELS 3 Zrotation Yrotation Xrotation
			JOINT mixamorig:Spine2
			{
				OFFSET	0.0001	13.3602	-1.6265
				CHANNELS 3 Zrotation Yrotation Xrotation
				JOINT mixamorig:Neck
				{
					OFFSET	0.0000	15.0325	0.7929
					CHANNELS 3 Zrotation Yrotation Xrotation
					JOINT mixamorig:Head
					{
						OFFSET	-0.0000	10.3218	3.1424
						CHANNELS 3 Zrotation Yrotation Xrotation
						JOINT mixamorig:HeadTop_End
						{
							OFFSET	0.0002	18.4747	6.6364
							CHANNELS 3 Zrotation Yrotation Xrotation
							End Site
							{
								OFFSET 0.0000 0.0000 0.0000
							}
						}
						JOINT mixamorig:LeftEye
						{
							OFFSET	2.9479	7.6817	9.1207
							CHANNELS 3 Zrotation Yrotation Xrotation
							End Site
							{
								OFFSET 0.0000 0.0000 0.0000
							}
						}
						JOINT mixamorig:RightEye
						{
							OFFSET	-2.9445	7.6817	9.1205
							CHANNELS 3 Zrotation Yrotation Xrotation
							End Site
							{
								OFFSET 0.0000 0.0000 0.0000
							}
						}
					}
				}
				JOINT mixamorig:LeftShoulder
				{
					OFFSET	6.1059	9.1104	0.7056
					CHANNELS 3 Zrotation Yrotation Xrotation
					JOINT mixamorig:LeftArm
					{
						OFFSET	12.6532	-0.3431	-2.6009
						CHANNELS 3 Zrotation Yrotation Xrotation
						JOINT mixamorig:LeftForeArm
						{
							OFFSET	27.3517	-0.9645	-1.4034
							CHANNELS 3 Zrotation Yrotation Xrotation
							JOINT mixamorig:LeftHand
							{
								OFFSET	27.5619	-0.7072	1.5500
								CHANNELS 3 Zrotation Yrotation Xrotation
								JOINT mixamorig:LeftHandMiddle1
								{
									OFFSET	12.6630	-1.3962	0.9548
									CHANNELS 3 Zrotation Yrotation Xrotation
									JOINT mixamorig:LeftHandMiddle2
									{
										OFFSET	3.6093	-0.1669	0.0778
										CHANNELS 3 Zrotation Yrotation Xrotation
										JOINT mixamorig:LeftHandMiddle3
										{
											OFFSET	3.4004	-0.6274	0.1148
											CHANNELS 3 Zrotation Yrotation Xrotation
											End Site
											{
												OFFSET 3.6205 -0.6493 0.1199
											}
										}
									}
								}
								JOINT mixamorig:LeftHandThumb1
								{
									OFFSET	3.3268	-2.0474	3.5790
									CHANNELS 3 Zrotation Yrotation Xrotation
									JOINT mixamorig:LeftHandThumb2
									{
										OFFSET	3.4890	-1.4806	2.8548
										CHANNELS 3 Zrotation Yrotation Xrotation
										JOINT mixamorig:LeftHandThumb3
										{
											OFFSET	3.4086	-1.7658	2.1133
											CHANNELS 3 Zrotation Yrotation Xrotation
											End Site
											{
												OFFSET 2.7231 -1.1597 1.7903
											}
										}
									}
								}
								JOINT mixamorig:LeftHandIndex1
								{
									OFFSET	11.9722	-1.1061	3.7324
									CHANNELS 3 Zrotation Yrotation Xrotation
									JOINT mixamorig:LeftHandIndex2
									{
										OFFSET	3.8387	-0.6406	-0.0310
										CHANNELS 3 Zrotation Yrotation Xrotation
										JOINT mixamorig:LeftHandIndex3
										{
											OFFSET	3.3346	-0.7374	-0.0133
											CHANNELS 3 Zrotation Yrotation Xrotation
											End Site
											{
												OFFSET 2.9714 -0.8030 0.0009
											}
										}
									}
								}
								JOINT mixamorig:LeftHandRing1
								{
									OFFSET	12.1659	-1.6805	-1.2769
									CHANNELS 3 Zrotation Yrotation Xrotation
									JOINT mixamorig:LeftHandRing2
									{
										OFFSET	3.5925	-0.2366	-0.0771
										CHANNELS 3 Zrotation Yrotation Xrotation
										JOINT mixamorig:LeftHandRing3
										{
											OFFSET	3.2906	-0.3266	-0.0615
											CHANNELS 3 Zrotation Yrotation Xrotation
											End Site
											{
												OFFSET 3.5423 -0.9211 -0.0200
											}
										}
									}
								}
								JOINT mixamorig:LeftHandPinky1
								{
									OFFSET	11.0508	-2.1872	-3.8040
									CHANNELS 3 Zrotation Yrotation Xrotation
									JOINT mixamorig:LeftHandPinky2
									{
										OFFSET	4.1236	-0.3047	0.1212
										CHANNELS 3 Zrotation Yrotation Xrotation
										JOINT mixamorig:LeftHandPinky3
										{
											OFFSET	2.5805	-0.2597	0.0823
											CHANNELS 3 Zrotation Yrotation Xrotation
											End Site
											{
												OFFSET 2.9027 -0.3379 0.0963
											}
										}
									}
								}
							}
						}
					}
				}
				JOINT mixamorig:RightShoulder
				{
					OFFSET	-6.1057	9.1105	0.7056
					CHANNELS 3 Zrotation Yrotation Xrotation
					JOINT mixamorig:RightArm
					{
						OFFSET	-12.6532	-0.3429	-2.6009
						CHANNELS 3 Zrotation Yrotation Xrotation
						JOINT mixamorig:RightForeArm
						{
							OFFSET	-27.3518	-0.9642	-1.4034
							CHANNELS 3 Zrotation Yrotation Xrotation
							JOINT mixamorig:RightHand
							{
								OFFSET	-27.5619	-0.7068	1.5501
								CHANNELS 3 Zrotation Yrotation Xrotation
								JOINT mixamorig:RightHandMiddle1
								{
									OFFSET	-12.6630	-1.3960	0.9549
									CHANNELS 3 Zrotation Yrotation Xrotation
									JOINT mixamorig:RightHandMiddle2
									{
										OFFSET	-3.6093	-0.1669	0.0778
										CHANNELS 3 Zrotation Yrotation Xrotation
										JOINT mixamorig:RightHandMiddle3
										{
											OFFSET	-3.4004	-0.6273	0.1148
											CHANNELS 3 Zrotation Yrotation Xrotation
											End Site
											{
												OFFSET -3.6205 -0.6492 0.1199
											}
										}
									}
								}
								JOINT mixamorig:RightHandThumb1
								{
									OFFSET	-3.3269	-2.0474	3.5790
									CHANNELS 3 Zrotation Yrotation Xrotation
									JOINT mixamorig:RightHandThumb2
									{
										OFFSET	-3.4890	-1.4805	2.8548
										CHANNELS 3 Zrotation Yrotation Xrotation
										JOINT mixamorig:RightHandThumb3
										{
											OFFSET	-3.4086	-1.7658	2.1133
											CHANNELS 3 Zrotation Yrotation Xrotation
											End Site
											{
												OFFSET -2.7231 -1.1596 1.7903
											}
										}
									}
								}
								JOINT mixamorig:RightHandIndex1
								{
									OFFSET	-11.9722	-1.1059	3.7324
									CHANNELS 3 Zrotation Yrotation Xrotation
									JOINT mixamorig:RightHandIndex2
									{
										OFFSET	-3.8387	-0.6406	-0.0310
										CHANNELS 3 Zrotation Yrotation Xrotation
										JOINT mixamorig:RightHandIndex3
										{
											OFFSET	-3.3346	-0.7373	-0.0133
											CHANNELS 3 Zrotation Yrotation Xrotation
											End Site
											{
												OFFSET -2.9715 -0.8029 0.0009
											}
										}
									}
								}
								JOINT mixamorig:RightHandRing1
								{
									OFFSET	-12.1659	-1.6803	-1.2769
									CHANNELS 3 Zrotation Yrotation Xrotation
									JOINT mixamorig:RightHandRing2
									{
										OFFSET	-3.5925	-0.2366	-0.0771
										CHANNELS 3 Zrotation Yrotation Xrotation
										JOINT mixamorig:RightHandRing3
										{
											OFFSET	-3.2906	-0.3265	-0.0615
											CHANNELS 3 Zrotation Yrotation Xrotation
											End Site
											{
												OFFSET -3.5423 -0.9210 -0.0200
											}
										}
									}
								}
								JOINT mixamorig:RightHandPinky1
								{
									OFFSET	-11.0508	-2.1870	-3.8040
									CHANNELS 3 Zrotation Yrotation Xrotation
									JOINT mixamorig:RightHandPinky2
									{
										OFFSET	-4.1236	-0.3046	0.1212
										CHANNELS 3 Zrotation Yrotation Xrotation
										JOINT mixamorig:RightHandPinky3
										{
											OFFSET	-2.5805	-0.2597	0.0823
											CHANNELS 3 Zrotation Yrotation Xrotation
											End Site
											{
												OFFSET -2.9027 -0.3379 0.0963
											}
										}
									}
								}
							}
						}
					}
				}
			}
		}
	}
	JOINT mixamorig:RightUpLeg
	{
		OFFSET	-9.1245	-6.6564	-0.0554
		CHANNELS 3 Zrotation Yrotation Xrotation
		JOINT mixamorig:RightLeg
		{
			OFFSET	0.0000	-40.5610	-1.7662
			CHANNELS 3 Zrotation Yrotation Xrotation
			JOINT mixamorig:RightFoot
			{
				OFFSET	0.4978	-41.9625	-3.3512
				CHANNELS 3 Zrotation Yrotation Xrotation
				JOINT mixamorig:RightToeBase
				{
					OFFSET	-0.3734	-10.4922	12.6406
					CHANNELS 3 Zrotation Yrotation Xrotation
					End Site
					{
						OFFSET 0.0000 0.0000 9.9925
					}
				}
			}
		}
	}
	JOINT mixamorig:LeftUpLeg
	{
		OFFSET	9.1245	-6.6564	-0.0554
		CHANNELS 3 Zrotation Yrotation Xrotation
		JOINT mixamorig:LeftLeg
		{
			OFFSET	-0.0000	-40.5610	-1.7662
			CHANNELS 3 Zrotation Yrotation Xrotation
			JOINT mixamorig:LeftFoot
			{
				OFFSET	-0.4978	-41.9625	-3.3512
				CHANNELS 3 Zrotation Yrotation Xrotation
				JOINT mixamorig:LeftToeBase
				{
					OFFSET	0.3734	-10.4922	12.6406
					CHANNELS 3 Zrotation Yrotation Xrotation
					End Site
					{
						OFFSET -0.0000 0.0000 9.9925
					}
				}
			}
		}
	}
}
MOTION
Frames: 5
Frame Time: 0.0333333
0.0760 90.5431 0.6178 1.3586 -3.5374 -0.4354 -0.1752 0.6719 2.0819 -0.3922 1.3687 3.1300 -0.3793 1.3752 3.1292 -1.8934 -2.3070 -4.1282 7.1007 -12.9912 -16.3454 0.0000 -0.0000 0.0000 0.0000 -0.0000 0.0000 0.0000 -0.0000 0.0000 3.5952 -7.3247 0.8040 -69.2735 11.0200 24.8603 167.3516 -81.9654 -169.4635 18.8563 6.4671 17.4547 -49.2774 -7.1598 3.5446 -37.1748 -0.8289 1.2009 -32.0812 -1.0681 1.1536 -13.3061 4.5841 4.8227 -0.1369 9.5654 0.8105 -4.1048 13.2053 5.3924 -34.0195 -15.9111 0.2814 -45.5214 -1.4748 0.0390 -28.3218 -0.8572 -0.0452 -51.2909 -6.8563 3.5698 -39.3111 -1.5563 -0.3833 -28.1184 -0.7568 -0.2846 -50.2005 2.3844 4.2095 -40.6732 -4.3734 3.9855 -29.7554 -0.9252 1.1038 3.5860 1.6092 0.7670 65.9468 -5.5781 35.2119 -172.4409 74.5244 -174.6488 -23.3862 1.1819 7.7387 45.7074 6.3407 3.2822 32.4391 0.6767 1.0058 39.8646 1.1675 1.5008 11.9451 -11.1387 -0.5227 -1.9687 -1.9674 -0.4561 1.6977 -5.5547 2.9703 47.7478 7.9392 2.7105 30.7037 0.9231 -0.1099 34.6370 1.0343 0.0021 52.4030 5.7382 3.7037 24.6680 0.8857 -0.3758 21.7115 0.4469 -0.2547 58.9138 -0.6229 4.6945 44.6743 1.0843 1.7314 31.4591 0.9245 1.1741 1.2982 -7.8818 -22.9713 -11.1929 -1.5748 54.9539 4.5791 -2.5506 -26.8217 0.0000 -0.0000 -8.0292 -4.0147 4.0490 -24.2612 4.8838 -0.7181 53.4404 2.2763 0.3959 -26.7640 -0.0000 0.0000 -5.5373 
0.0813 91.5912 0.5975 0.9907 -3.3122 0.0671 -0.1073 0.6397 1.8657 -0.2367 1.2972 2.7495 -0.2250 1.3027 2.7486 -1.6754 -2.2889 -3.9762 6.7385 -12.6918 -16.7180 0.0000 -0.0000 0.0000 0.0000 -0.0000 0.0000 0.0000 -0.0000 0.0000 5.0688 -8.3280 0.6379 -71.1023 11.7194 25.1189 168.4507 -81.0418 -170.5747 20.5079 5.7748 16.7961 -49.7329 -7.6535 3.5577 -37.3216 -0.8319 1.2069 -31.9787 -1.0659 1.1491 -12.8859 4.6132 4.8020 -0.1386 9.5708 0.8120 -4.1758 13.4605 5.4740 -34.1592 -16.0572 0.2680 -45.2605 -1.4661 0.0352 -28.2210 -0.8537 -0.0458 -51.8002 -7.0497 3.5968 -39.3805 -1.5594 -0.3829 -27.9353 -0.7490 -0.2841 -50.9271 2.3432 4.2628 -41.3608 -4.3534 4.0568 -29.5503 -0.9207 1.0947 3.6102 2.5855 0.9567 64.7796 -5.4541 36.6378 -172.8782 73.1650 -175.1039 -22.8562 2.7826 5.6822 45.1650 6.5606 3.2288 32.0233 0.6671 0.9900 39.8781 1.1681 1.5035 11.5786 -11.2362 -0.4841 -1.9687 -1.9674 -0.4561 1.6867 -5.4665 2.9364 47.4746 8.1188 2.6599 30.4926 0.9158 -0.1109 34.4609 1.0285 0.0004 52.1508 5.7815 3.6818 24.5451 0.8805 -0.3750 21.6244 0.4435 -0.2532 58.8331 -0.5686 4.6845 44.7445 1.0850 1.7347 31.4025 0.9234 1.1715 1.5539 -8.2528 -22.7580 -11.1062 -2.1627 52.9405 4.3517 -2.1288 -23.7152 0.0000 -0.0000 -10.0334 -3.9560 3.7987 -24.1545 5.3228 -0.9526 51.5607 2.1597 0.2793 -23.9265 -0.0000 0.0000 -7.3580 
0.1941 94.6534 0.9298 0.3254 -3.4820 0.4785 0.1504 0.6893 1.4690 0.0977 1.4021 2.1950 0.1083 1.4091 2.1933 -1.4297 -2.2866 -4.1275 6.5492 -12.5781 -15.6548 0.0000 -0.0000 0.0000 0.0000 -0.0000 0.0000 0.0000 -0.0000 0.0000 5.7184 -8.6298 0.5559 -70.7392 12.2629 26.6934 170.8790 -77.9644 -173.0430 21.2874 5.4914 17.1780 -49.8464 -8.1580 3.5433 -37.2958 -0.8313 1.2058 -31.8552 -1.0632 1.1436 -12.5275 4.6201 4.7710 -0.0499 9.2671 0.7350 -4.2254 13.6404 5.5316 -34.1727 -16.3409 0.2201 -44.8901 -1.4538 0.0300 -28.0215 -0.8466 -0.0470 -51.7828 -7.2108 3.5851 -39.3667 -1.5588 -0.3830 -27.7927 -0.7428 -0.2838 -50.8942 2.3374 4.2597 -41.7767 -4.3409 4.0999 -29.4381 -0.9182 1.0897 5.4349 3.7022 1.2569 60.8295 -4.9469 37.8171 -173.8546 69.0269 -176.1347 -22.6639 3.7138 4.5444 44.8579 6.9108 3.1880 31.5059 0.6549 0.9705 39.8991 1.1690 1.5081 11.1528 -11.4707 -0.3443 -1.9687 -1.9674 -0.4561 1.6776 -5.3945 2.9086 47.1919 8.4093 2.5901 30.2509 0.9074 -0.1120 34.3245 1.0239 -0.0008 51.7834 5.7784 3.6540 24.2024 0.8660 -0.3726 21.5778 0.4415 -0.2531 58.7189 -0.4379 4.6661 44.6224 1.0838 1.7290 31.3438 0.9222 1.1689 1.5770 -9.2405 -20.3021 -10.9447 -3.2767 45.9470 6.0239 0.7885 -13.6478 0.0000 -0.0000 -13.1038 -3.7093 4.3836 -22.3260 5.2226 -2.0091 45.6921 1.3448 -0.0319 -14.4044 -0.0000 0.0000 -13.4037 
0.3839 98.7592 1.3893 -0.2789 -3.9212 1.0160 0.4511 0.7869 0.9768 0.4536 1.6045 1.5231 0.4625 1.6141 1.5197 -1.2525 -2.3090 -4.7417 6.5543 -12.7036 -13.6114 0.0000 -0.0000 0.0000 0.0000 -0.0000 0.0000 0.0000 -0.0000 0.0000 5.2009 -8.1367 0.6209 -67.8972 12.2153 28.8334 172.7933 -73.4351 -175.0163 21.2224 5.9190 18.4762 -49.6803 -8.5237 3.5135 -37.2282 -0.8299 1.2031 -31.7527 -1.0610 1.1391 -12.4442 4.6123 4.7568 0.0219 9.0217 0.6730 -4.2691 13.8000 5.5829 -34.0881 -16.6187 0.1648 -44.6748 -1.4466 0.0271 -27.8572 -0.8409 -0.0479 -51.4370 -7.2777 3.5541 -39.3394 -1.5576 -0.3831 -27.7240 -0.7399 -0.2836 -50.2071 2.4226 4.2130 -41.6951 -4.3434 4.0914 -29.4480 -0.9184 1.0902 6.9306 3.9647 1.3860 56.7932 -2.9956 39.0846 -174.5968 64.1364 -176.9422 -22.2681 3.9422 5.6400 45.2331 7.3485 3.1977 31.1100 0.6455 0.9556 39.9333 1.1704 1.5144 10.7914 -11.8369 -0.0946 -1.9687 -1.9674 -0.4561 1.6572 -5.2350 2.8473 47.2034 8.7686 2.5314 30.0002 0.8987 -0.1132 34.1956 1.0196 -0.0020 51.7127 5.8118 3.6465 23.8742 0.8521 -0.3702 21.6352 0.4441 -0.2527 58.6656 -0.2075 4.6443 44.6374 1.0839 1.7297 31.3062 0.9215 1.1673 1.2099 -10.9913 -16.3746 -7.8668 -2.4588 35.0919 8.0607 1.0040 0.0677 -1.6941 -0.3860 -18.3838 -3.1760 5.9554 -19.5002 4.1263 -3.6078 36.4361 -0.7024 -0.2505 1.5133 -0.9359 -0.2488 -19.2508 
0.6158 102.6812 1.7259 -0.7350 -4.5670 1.8453 0.7584 0.9026 0.4756 0.7771 1.8389 0.8735 0.7823 1.8508 0.8676 -1.2416 -2.3329 -5.8181 6.6968 -12.9178 -11.7526 0.0000 -0.0000 0.0000 0.0000 -0.0000 0.0000 0.0000 -0.0000 0.0000 3.7920 -7.0367 0.7752 -63.2171 10.9013 30.8915 174.0098 -68.1502 -176.3024 21.0254 6.8763 20.1556 -49.1671 -8.7592 3.4621 -37.0674 -0.8266 1.1966 -31.6351 -1.0584 1.1339 -12.7483 4.5846 4.7670 -0.0163 9.1487 0.7054 -4.3425 14.0703 5.6698 -33.7738 -16.7711 0.1116 -44.6022 -1.4442 0.0261 -27.6735 -0.8344 -0.0489 -50.7889 -7.2640 3.5048 -39.2562 -1.5540 -0.3835 -27.6689 -0.7375 -0.2834 -49.0293 2.5970 4.1345 -41.0958 -4.3612 4.0294 -29.4898 -0.9194 1.0920 6.8180 3.1343 1.2059 54.5168 1.4757 40.4984 -175.0546 59.7156 -177.4600 -21.8883 3.8278 6.9661 46.3694 7.7643 3.2690 30.9313 0.6411 0.9489 39.9613 1.1716 1.5203 10.5802 -12.2834 0.2340 -1.9687 -1.9674 -0.4561 1.6107 -4.8794 2.7103 47.5678 9.1653 2.4935 29.8202 0.8925 -0.1140 34.1694 1.0187 -0.0022 52.1887 5.8824 3.6782 23.8156 0.8497 -0.3698 21.6159 0.4437 -0.2507 58.7333 0.0390 4.6298 45.2846 1.0901 1.7600 31.3390 0.9221 1.1687 0.4796 -12.7356 -13.3563 -5.5349 -1.1428 25.3719 13.2745 -0.6101 12.2169 -6.9669 -1.5073 -18.0600 -2.4970 7.9917 -17.8610 3.5270 -4.1960 29.1012 -4.8135 0.3861 14.1367 2.9739 0.8175 -20.4632 
